<svg xmlns="http://www.w3.org/2000/svg" width="64" height="64" viewBox="0 0 16 16"
    shape-rendering="crispEdges">
    <!-- #5d422d : 50 px -->
    <g fill="#5d422d">
        <rect x="4" y="0" width="1" height="1" />
        <rect x="14" y="0" width="1" height="1" />
        <rect x="5" y="1" width="1" height="1" />
        <rect x="10" y="1" width="1" height="1" />
        <rect x="12" y="1" width="1" height="1" />
        <rect x="9" y="2" width="1" height="1" />
        <rect x="11" y="2" width="1" height="1" />
        <rect x="3" y="3" width="1" height="1" />
        <rect x="9" y="3" width="1" height="1" />
        <rect x="1" y="4" width="1" height="1" />
        <rect x="5" y="4" width="1" height="1" />
        <rect x="8" y="4" width="1" height="1" />
        <rect x="13" y="4" width="1" height="1" />
        <rect x="3" y="5" width="1" height="1" />
        <rect x="5" y="5" width="1" height="1" />
        <rect x="10" y="5" width="1" height="1" />
        <rect x="12" y="6" width="4" height="1" />
        <rect x="10" y="7" width="1" height="1" />
        <rect x="14" y="7" width="1" height="1" />
        <rect x="0" y="8" width="1" height="1" />
        <rect x="2" y="8" width="1" height="1" />
        <rect x="0" y="9" width="1" height="1" />
        <rect x="15" y="9" width="1" height="1" />
        <rect x="0" y="10" width="3" height="1" />
        <rect x="0" y="11" width="1" height="1" />
        <rect x="2" y="11" width="1" height="1" />
        <rect x="6" y="11" width="1" height="1" />
        <rect x="2" y="12" width="2" height="1" />
        <rect x="9" y="12" width="1" height="1" />
        <rect x="1" y="13" width="1" height="1" />
        <rect x="4" y="13" width="1" height="1" />
        <rect x="7" y="13" width="1" height="1" />
        <rect x="10" y="13" width="1" height="1" />
        <rect x="13" y="13" width="1" height="1" />
        <rect x="0" y="14" width="1" height="1" />
        <rect x="6" y="14" width="1" height="1" />
        <rect x="9" y="14" width="1" height="1" />
        <rect x="13" y="14" width="1" height="1" />
        <rect x="0" y="15" width="1" height="1" />
        <rect x="10" y="15" width="3" height="1" />
        <rect x="14" y="15" width="2" height="1" />
    </g>
    <!-- #533a27 : 46 px -->
    <g fill="#533a27">
        <rect x="3" y="0" width="1" height="1" />
        <rect x="8" y="0" width="1" height="1" />
        <rect x="11" y="0" width="1" height="1" />
        <rect x="15" y="0" width="1" height="1" />
        <rect x="1" y="1" width="1" height="1" />
        <rect x="15" y="1" width="1" height="1" />
        <rect x="3" y="2" width="1" height="1" />
        <rect x="6" y="2" width="1" height="1" />
        <rect x="13" y="2" width="1" height="1" />
        <rect x="6" y="3" width="1" height="1" />
        <rect x="12" y="4" width="1" height="1" />
        <rect x="14" y="4" width="1" height="1" />
        <rect x="1" y="5" width="1" height="1" />
        <rect x="9" y="5" width="1" height="1" />
        <rect x="11" y="5" width="4" height="1" />
        <rect x="1" y="6" width="2" height="1" />
        <rect x="5" y="6" width="2" height="1" />
        <rect x="9" y="6" width="1" height="1" />
        <rect x="0" y="7" width="1" height="1" />
        <rect x="6" y="7" width="2" height="1" />
        <rect x="13" y="7" width="1" height="1" />
        <rect x="1" y="8" width="1" height="1" />
        <rect x="6" y="8" width="1" height="1" />
        <rect x="8" y="8" width="1" height="1" />
        <rect x="12" y="8" width="2" height="1" />
        <rect x="1" y="9" width="1" height="1" />
        <rect x="3" y="9" width="1" height="1" />
        <rect x="7" y="9" width="5" height="1" />
        <rect x="1" y="12" width="1" height="1" />
        <rect x="11" y="12" width="1" height="1" />
        <rect x="13" y="12" width="1" height="1" />
        <rect x="8" y="13" width="1" height="1" />
        <rect x="1" y="14" width="1" height="1" />
        <rect x="7" y="14" width="1" height="1" />
        <rect x="12" y="14" width="1" height="1" />
    </g>
    <!-- #563c29 : 29 px -->
    <g fill="#563c29">
        <rect x="1" y="0" width="1" height="1" />
        <rect x="10" y="0" width="1" height="1" />
        <rect x="11" y="1" width="1" height="1" />
        <rect x="13" y="1" width="2" height="1" />
        <rect x="2" y="2" width="1" height="1" />
        <rect x="10" y="2" width="1" height="1" />
        <rect x="4" y="3" width="1" height="1" />
        <rect x="10" y="3" width="1" height="1" />
        <rect x="12" y="3" width="1" height="1" />
        <rect x="15" y="3" width="1" height="1" />
        <rect x="0" y="4" width="1" height="1" />
        <rect x="12" y="7" width="1" height="1" />
        <rect x="4" y="8" width="1" height="1" />
        <rect x="11" y="8" width="1" height="1" />
        <rect x="5" y="10" width="1" height="1" />
        <rect x="1" y="11" width="1" height="1" />
        <rect x="11" y="11" width="1" height="1" />
        <rect x="13" y="11" width="1" height="1" />
        <rect x="7" y="12" width="1" height="1" />
        <rect x="10" y="12" width="1" height="1" />
        <rect x="0" y="13" width="1" height="1" />
        <rect x="2" y="13" width="2" height="1" />
        <rect x="2" y="14" width="1" height="1" />
        <rect x="11" y="14" width="1" height="1" />
        <rect x="1" y="15" width="1" height="1" />
        <rect x="4" y="15" width="1" height="1" />
        <rect x="13" y="15" width="1" height="1" />
    </g>
    <!-- #6a4b33 : 28 px -->
    <g fill="#6a4b33">
        <rect x="9" y="0" width="1" height="1" />
        <rect x="8" y="1" width="2" height="1" />
        <rect x="4" y="2" width="1" height="1" />
        <rect x="7" y="2" width="1" height="1" />
        <rect x="14" y="2" width="1" height="1" />
        <rect x="2" y="3" width="1" height="1" />
        <rect x="14" y="3" width="1" height="1" />
        <rect x="3" y="4" width="1" height="1" />
        <rect x="15" y="5" width="1" height="1" />
        <rect x="1" y="7" width="1" height="1" />
        <rect x="12" y="9" width="1" height="1" />
        <rect x="14" y="9" width="1" height="1" />
        <rect x="4" y="10" width="1" height="1" />
        <rect x="6" y="10" width="1" height="1" />
        <rect x="13" y="10" width="1" height="1" />
        <rect x="3" y="11" width="3" height="1" />
        <rect x="9" y="11" width="2" height="1" />
        <rect x="4" y="12" width="2" height="1" />
        <rect x="14" y="13" width="1" height="1" />
        <rect x="8" y="14" width="1" height="1" />
        <rect x="14" y="14" width="1" height="1" />
        <rect x="2" y="15" width="2" height="1" />
    </g>
    <!-- #644731 : 28 px -->
    <g fill="#644731">
        <rect x="0" y="0" width="1" height="1" />
        <rect x="12" y="0" width="1" height="1" />
        <rect x="0" y="1" width="1" height="1" />
        <rect x="4" y="1" width="1" height="1" />
        <rect x="15" y="2" width="1" height="1" />
        <rect x="8" y="3" width="1" height="1" />
        <rect x="13" y="3" width="1" height="1" />
        <rect x="2" y="5" width="1" height="1" />
        <rect x="0" y="6" width="1" height="1" />
        <rect x="4" y="7" width="2" height="1" />
        <rect x="8" y="7" width="1" height="1" />
        <rect x="11" y="7" width="1" height="1" />
        <rect x="15" y="7" width="1" height="1" />
        <rect x="3" y="8" width="1" height="1" />
        <rect x="5" y="8" width="1" height="1" />
        <rect x="9" y="8" width="2" height="1" />
        <rect x="7" y="10" width="1" height="1" />
        <rect x="12" y="10" width="1" height="1" />
        <rect x="7" y="11" width="1" height="1" />
        <rect x="14" y="11" width="1" height="1" />
        <rect x="14" y="12" width="2" height="1" />
        <rect x="5" y="13" width="1" height="1" />
        <rect x="3" y="14" width="1" height="1" />
        <rect x="10" y="14" width="1" height="1" />
        <rect x="15" y="14" width="1" height="1" />
    </g>
    <!-- #4e3725 : 21 px -->
    <g fill="#4e3725">
        <rect x="2" y="0" width="1" height="1" />
        <rect x="3" y="1" width="1" height="1" />
        <rect x="5" y="2" width="1" height="1" />
        <rect x="12" y="2" width="1" height="1" />
        <rect x="5" y="3" width="1" height="1" />
        <rect x="4" y="4" width="1" height="1" />
        <rect x="6" y="4" width="2" height="1" />
        <rect x="10" y="4" width="1" height="1" />
        <rect x="15" y="4" width="1" height="1" />
        <rect x="0" y="5" width="1" height="1" />
        <rect x="4" y="9" width="1" height="1" />
        <rect x="11" y="10" width="1" height="1" />
        <rect x="15" y="11" width="1" height="1" />
        <rect x="0" y="12" width="1" height="1" />
        <rect x="12" y="12" width="1" height="1" />
        <rect x="11" y="13" width="2" height="1" />
        <rect x="4" y="14" width="2" height="1" />
        <rect x="5" y="15" width="1" height="1" />
    </g>
    <!-- #75543a : 20 px -->
    <g fill="#75543a">
        <rect x="5" y="0" width="1" height="1" />
        <rect x="13" y="0" width="1" height="1" />
        <rect x="8" y="2" width="1" height="1" />
        <rect x="7" y="3" width="1" height="1" />
        <rect x="2" y="4" width="1" height="1" />
        <rect x="7" y="6" width="2" height="1" />
        <rect x="10" y="6" width="2" height="1" />
        <rect x="2" y="7" width="2" height="1" />
        <rect x="13" y="9" width="1" height="1" />
        <rect x="3" y="10" width="1" height="1" />
        <rect x="9" y="10" width="2" height="1" />
        <rect x="6" y="12" width="1" height="1" />
        <rect x="6" y="13" width="1" height="1" />
        <rect x="15" y="13" width="1" height="1" />
        <rect x="8" y="15" width="2" height="1" />
    </g>
    <!-- #442f1f : 18 px -->
    <g fill="#442f1f">
        <rect x="7" y="0" width="1" height="1" />
        <rect x="2" y="1" width="1" height="1" />
        <rect x="7" y="1" width="1" height="1" />
        <rect x="9" y="4" width="1" height="1" />
        <rect x="6" y="5" width="3" height="1" />
        <rect x="9" y="7" width="1" height="1" />
        <rect x="7" y="8" width="1" height="1" />
        <rect x="14" y="8" width="2" height="1" />
        <rect x="2" y="9" width="1" height="1" />
        <rect x="5" y="9" width="2" height="1" />
        <rect x="8" y="10" width="1" height="1" />
        <rect x="12" y="11" width="1" height="1" />
        <rect x="9" y="13" width="1" height="1" />
        <rect x="7" y="15" width="1" height="1" />
    </g>
    <!-- #5e4b3b : 9 px -->
    <g fill="#5e4b3b">
        <rect x="6" y="0" width="1" height="1" />
        <rect x="6" y="1" width="1" height="1" />
        <rect x="0" y="2" width="1" height="1" />
        <rect x="1" y="3" width="1" height="1" />
        <rect x="3" y="6" width="2" height="1" />
        <rect x="14" y="10" width="2" height="1" />
        <rect x="6" y="15" width="1" height="1" />
    </g>
    <!-- #574131 : 7 px -->
    <g fill="#574131">
        <rect x="1" y="2" width="1" height="1" />
        <rect x="0" y="3" width="1" height="1" />
        <rect x="11" y="3" width="1" height="1" />
        <rect x="11" y="4" width="1" height="1" />
        <rect x="4" y="5" width="1" height="1" />
        <rect x="8" y="11" width="1" height="1" />
        <rect x="8" y="12" width="1" height="1" />
    </g>
</svg>
